<?xml version="1.0" encoding="UTF-8"?>
<svg width="170px" height="218px" viewBox="0 0 170 218" version="1.1" xmlns="http://www.w3.org/2000/svg" xmlns:xlink="http://www.w3.org/1999/xlink">
    <title>形状</title>
    <g id="页面-1" stroke="none" stroke-width="1" fill="none" fill-rule="evenodd">
        <g id="1-1首次登录-提示" transform="translate(-506.000000, -316.000000)" fill="#DCE5FD" fill-rule="nonzero">
            <g id="形状" transform="translate(75.000000, 317.000000)">
                <g id="编组" transform="translate(431.000000, -8.954865)">
                    <path d="M5.89735808,23.0434296 L90.6519835,0.2422425 L90.6519829,0.242242669 C91.6221975,-0.0169800215 92.6291138,-0.0687485415 93.617299,0.0897827575 L94.3508802,0.242242404 L179.105506,23.0434295 L179.105506,23.0434297 C182.389964,23.9254273 184.771676,27.0338227 184.989668,30.7228697 L185,31.5134021 L184.287082,61.5535109 L184.049443,69.4249548 C182.866414,105.620092 180.743166,121.984094 174.569697,136.010382 L174.135747,136.981606 L173.273012,138.799827 C159.396956,167.23064 131.820386,200.066107 96.6602746,224.538527 L96.6602743,224.538527 C94.1227088,226.302604 90.8804833,226.302604 88.3428935,224.538527 C53.1825403,200.071585 25.6061392,167.230639 11.7301559,138.799827 L10.7744321,136.783972 C4.78696501,123.582104 2.48288971,108.573379 1.2223767,76.9012104 L1.03639818,71.8926199 L0.716101027,61.5479417 L0.00318336401,31.5078329 L0.00318345445,31.5078364 C-0.0931987031,27.8185776 2.00711412,24.4858256 5.19508382,23.2693776 L5.89250328,23.0435116 L90.6471288,0.242324462 L5.89783079,23.0435116 L5.89735808,23.0434296 Z M84.0703296,133.395892 L84.612767,133.875857 L85.2481936,134.338882 L85.7131399,134.621215 L86.3124048,134.91484 L86.5810397,135.027773 L86.9529967,135.157646 L87.4489394,135.298813 L88.301341,135.462566 L88.9212694,135.519032 L89.7323416,135.496445 L90.2696136,135.439979 L90.8172163,135.332692 L91.2821626,135.208466 L91.9175892,134.9826 L92.7493273,134.576041 L93.3175958,134.225948 L93.7515456,133.904088 L94.2319902,133.486235 L94.676273,133.034502 L94.9862372,132.678763 L134.429182,84.7161756 L134.925125,84.0385771 L134.925124,84.0385772 C137.450049,80.2615748 136.695616,74.9624639 133.240077,72.2026531 C130.26861,69.8294599 126.179891,70.0680222 123.456444,72.7734954 L122.898509,73.3946282 L89.2259835,114.338513 L74.3218634,96.0094757 L73.7690931,95.3939914 L73.7690931,95.3939913 C70.6119624,92.2358533 65.7102902,92.4731186 62.8209395,95.923958 C60.3433085,98.8830515 60.1044665,103.336038 62.2487626,106.591316 L62.73954,107.268914 L83.4348085,132.707098 L83.786102,133.113657 L84.0702351,133.39599 L84.0703296,133.395892 Z" id="形状"></path>
                </g>
            </g>
        </g>
    </g>
</svg>